<?xml version="1.0" encoding="iso-8859-1"?>
<!-- Generator: Adobe Illustrator 18.0.0, SVG Export Plug-In . SVG Version: 6.00 Build 0)  -->
<!DOCTYPE svg PUBLIC "-//W3C//DTD SVG 1.1//EN" "http://www.w3.org/Graphics/SVG/1.1/DTD/svg11.dtd">
<svg version="1.1" id="Capa_1" xmlns="http://www.w3.org/2000/svg" xmlns:xlink="http://www.w3.org/1999/xlink" x="0px" y="0px"
	 viewBox="0 0 512 512" style="enable-background:new 0 0 512 512;" xml:space="preserve">
<g>
	<path d="M192,224c-17.672,0-32,14.328-32,32s14.328,32,32,32h128c17.672,0,32-14.328,32-32s-14.328-32-32-32H192z"/>
	<path d="M256,320h-64c-17.672,0-32,14.328-32,32s14.328,32,32,32h64c17.672,0,32-14.328,32-32S273.672,320,256,320z"/>
	<path d="M416,32h-80c0-17.674-11.938-32-26.668-32H202.668C187.938,0,176,14.326,176,32H96c-17.672,0-32,14.328-32,32v416
		c0,17.672,14.328,32,32,32h320c17.672,0,32-14.328,32-32V64C448,46.328,433.672,32,416,32z M256,32c17.672,0,32,14.326,32,32
		c0,17.673-14.328,32-32,32s-32-14.327-32-32C224,46.326,238.328,32,256,32z M384,448H128V96h48v32h160V96h48V448z"/>
</g>
<g>
</g>
<g>
</g>
<g>
</g>
<g>
</g>
<g>
</g>
<g>
</g>
<g>
</g>
<g>
</g>
<g>
</g>
<g>
</g>
<g>
</g>
<g>
</g>
<g>
</g>
<g>
</g>
<g>
</g>
</svg>
